<?xml version="1.0" encoding="utf-8"?>
<!-- Generator: Adobe Illustrator 19.1.0, SVG Export Plug-In . SVG Version: 6.00 Build 0)  -->
<svg version="1.1" id="Layer_1" xmlns="http://www.w3.org/2000/svg" xmlns:xlink="http://www.w3.org/1999/xlink" x="0px" y="0px"
	 width="64.5px" height="42px" viewBox="-259 249.5 64.5 42" style="enable-background:new -259 249.5 64.5 42;"
	 xml:space="preserve">
<style type="text/css">
	.st0{fill:none;stroke:#E3E5E6;stroke-width:0.5;stroke-miterlimit:10;}
	.st1{fill:#E3E5E6;}
	.st2{stroke:#000000;stroke-linejoin:round;stroke-miterlimit:10;}
	.st3{fill:none;stroke:#11ACCD;stroke-linejoin:round;stroke-miterlimit:10;}
	.st4{fill:none;stroke:#74CF70;stroke-linejoin:round;stroke-miterlimit:10;}
	.st5{fill:none;stroke:#000000;stroke-width:2;stroke-miterlimit:10;}
	.st6{fill:none;stroke:#11ACCD;stroke-linecap:round;stroke-linejoin:round;stroke-miterlimit:10;}
	.st7{fill:none;stroke:#74CF70;stroke-linecap:round;stroke-linejoin:round;stroke-miterlimit:10;}
	.st8{stroke:#000000;stroke-linecap:round;stroke-linejoin:round;stroke-miterlimit:10;}
	.st9{fill:none;stroke:#000000;stroke-linejoin:round;stroke-miterlimit:10;}
	.st10{fill:#74CF70;stroke:#74CF70;stroke-linejoin:round;stroke-miterlimit:10;}
</style>
<line class="st0" x1="-232" y1="257" x2="-232" y2="284.9"/>
<line class="st0" x1="-226" y1="257" x2="-226" y2="284.9"/>
<line class="st0" x1="-238" y1="257" x2="-238" y2="284.9"/>
<line class="st0" x1="-244" y1="257" x2="-244" y2="284.9"/>
<line class="st0" x1="-219.1" y1="257" x2="-250" y2="257"/>
<line class="st0" x1="-218.8" y1="263" x2="-250" y2="263"/>
<line class="st0" x1="-219.8" y1="269" x2="-250" y2="269"/>
<line class="st0" x1="-219.8" y1="275" x2="-250" y2="275"/>
<line class="st0" x1="-219.8" y1="281" x2="-250" y2="281"/>
<rect x="-220" y="257" class="st1" width="20.9" height="25.5"/>
<polygon class="st2" points="-237.5,272.2 -237.6,266.4 -232.7,269.4 "/>
<polygon class="st3" points="-209.5,273.5 -214,269 -205,269 "/>
<polygon class="st4" points="-238,285.5 -242.5,281 -233.5,281 "/>
<path class="st5" d="M-213.7,261.2c-7.1-4.2-17-0.6-22.1,8.1"/>
<line class="st6" x1="-209.5" y1="264.5" x2="-209.5" y2="269"/>
<line class="st7" x1="-238" y1="276.5" x2="-238" y2="281"/>
<path class="st8" d="M-226,275c0.1,0-30,0-30,0"/>
<circle class="st9" cx="-225.9" cy="274.9" r="1.6"/>
<circle class="st10" cx="-237.9" cy="275.1" r="1.6"/>
</svg>
