<?xml version="1.0" encoding="utf-8"?>
<!-- Generator: Adobe Illustrator 19.1.0, SVG Export Plug-In . SVG Version: 6.00 Build 0)  -->
<svg version="1.1" id="Layer_1" xmlns="http://www.w3.org/2000/svg" xmlns:xlink="http://www.w3.org/1999/xlink" x="0px" y="0px"
	 width="69px" height="42px" viewBox="-259 249.5 69 42" style="enable-background:new -259 249.5 69 42;" xml:space="preserve">
<style type="text/css">
	.st0{fill:none;stroke:#E3E5E6;stroke-width:0.5;stroke-miterlimit:10;}
	.st1{fill:#E3E5E6;}
	.st2{stroke:#000000;stroke-linejoin:round;stroke-miterlimit:10;}
	.st3{fill:none;stroke:#000000;stroke-width:2;stroke-miterlimit:10;}
	.st4{fill:none;stroke:#11ACCD;stroke-linecap:round;stroke-linejoin:round;stroke-miterlimit:10;}
	.st5{stroke:#000000;stroke-linecap:round;stroke-linejoin:round;stroke-miterlimit:10;}
	.st6{fill:none;stroke:#000000;stroke-linejoin:round;stroke-miterlimit:10;}
	.st7{fill:#01D1C1;stroke:#11ACCD;stroke-miterlimit:10;}
	.st8{fill:none;stroke:#11ACCD;stroke-miterlimit:10;}
</style>
<line class="st0" x1="-232" y1="257" x2="-232" y2="284.9"/>
<line class="st0" x1="-226" y1="257" x2="-226" y2="284.9"/>
<line class="st0" x1="-238" y1="257" x2="-238" y2="284.9"/>
<line class="st0" x1="-244" y1="257" x2="-244" y2="284.9"/>
<line class="st0" x1="-219.1" y1="257" x2="-250" y2="257"/>
<line class="st0" x1="-218.8" y1="263" x2="-250" y2="263"/>
<line class="st0" x1="-219.8" y1="269" x2="-250" y2="269"/>
<line class="st0" x1="-219.8" y1="275" x2="-250" y2="275"/>
<line class="st0" x1="-219.8" y1="281" x2="-250" y2="281"/>
<rect x="-221.4" y="257" class="st1" width="25.4" height="28.5"/>
<polygon class="st2" points="-237.5,272.2 -237.6,266.4 -232.7,269.4 "/>
<path class="st3" d="M-213.7,261.2c-7.1-4.2-17-0.6-22.1,8.1"/>
<line class="st4" x1="-214.7" y1="276.2" x2="-218.9" y2="280.5"/>
<path class="st5" d="M-238,275c0,0-18,0-18,0"/>
<line class="st6" x1="-237.9" y1="275.1" x2="-238" y2="290"/>
<path class="st7" d="M-202,263"/>
<path class="st7" d="M-199,262.6"/>
<path class="st8" d="M-203.9,264.5c0.5-0.5,1.8-1.7,3.8-2.1c2.8-0.6,5,0.6,5.6,0.9"/>
<polygon class="st7" points="-204,261.2 -202,263.3 -199.9,265.5 -212.8,278 -217,273.7 "/>
</svg>
