<?xml version="1.0" encoding="utf-8"?>
<!-- Generator: Adobe Illustrator 19.1.0, SVG Export Plug-In . SVG Version: 6.00 Build 0)  -->
<svg version="1.1" id="Layer_1" xmlns="http://www.w3.org/2000/svg" xmlns:xlink="http://www.w3.org/1999/xlink" x="0px" y="0px"
	 viewBox="0 0 258 252" style="enable-background:new 0 0 258 252;" xml:space="preserve">
<path d="M226.3,186H31.1c-4.3,0-7.7,3.5-7.7,7.7v8.5c0,4.3,3.5,7.7,7.7,7.7h195.2c4.3,0,7.7-3.5,7.7-7.7v-8.5
	C234,189.5,230.5,186,226.3,186z"/>
<path d="M226.3,114H31.7c-4.3,0-7.7,3.5-7.7,7.7v8.5c0,4.3,3.5,7.7,7.7,7.7h194.5c4.3,0,7.7-3.5,7.7-7.7v-8.5
	C234,117.5,230.5,114,226.3,114z"/>
<path d="M226.3,42H31.7c-4.3,0-7.7,3.5-7.7,7.7v8.5c0,4.3,3.5,7.7,7.7,7.7h194.5c4.3,0,7.7-3.5,7.7-7.7v-8.5
	C234,45.5,230.5,42,226.3,42z"/>
<path d="M192,25.7v200.5c0,4.3,3.5,7.7,7.7,7.7h8.5c4.3,0,7.7-3.5,7.7-7.7V25.7c0-4.3-3.5-7.7-7.7-7.7h-8.5
	C195.5,18,192,21.5,192,25.7z"/>
<path d="M120,25.7v200.5c0,4.3,3.5,7.7,7.7,7.7h8.5c4.3,0,7.7-3.5,7.7-7.7V25.7c0-4.3-3.5-7.7-7.7-7.7h-8.5
	C123.5,18,120,21.5,120,25.7z"/>
<path d="M48,25.7v200.5c0,4.3,3.5,7.7,7.7,7.7h8.5c4.3,0,7.7-3.5,7.7-7.7V25.7c0-4.3-3.5-7.7-7.7-7.7h-8.5C51.5,18,48,21.5,48,25.7z
	"/>
</svg>
